C:\Users\movea\Dropbox\PhDWork\ExperimentalData\subject7\100\P7S100W04_filtered35.mot
nRows=13
nColumns=28

name C:\Users\movea\Dropbox\PhDWork\ExperimentalData\subject7\100\P7S100W04_filtered35.mot
datacolumns 28
datarows 13
range 1.1750000000 1.1870000000
endheader
time	ground_force_1_vx	ground_force_1_vy	ground_force_1_vz	ground_force_1_px	ground_force_1_py	ground_force_1_pz	ground_moment_1_mx	ground_moment_1_my	ground_moment_1_mz	ground_force_2_vx	ground_force_2_vy	ground_force_2_vz	ground_force_2_px	ground_force_2_py	ground_force_2_pz	ground_moment_2_mx	ground_moment_2_my	ground_moment_2_mz	ground_force_3_vx	ground_force_3_vy	ground_force_3_vz	ground_force_3_px	ground_force_3_py	ground_force_3_pz	ground_moment_3_mx	ground_moment_3_my	ground_moment_3_mz
        1.1750000000	       29.8811331853	      221.9668103522	       15.0991802042	        0.1988394958	        0.0000558755	       -0.3004071327	      -18.1923318980	        2.9157282821	      -15.3855765964	        9.3340125333	      642.8738518600	      -92.0780226418	        0.2029003516	       -0.0000795827	        0.4543649445	      124.7194793982	      -16.6662049992	      -95.2174420509	       -0.0000000000	        0.0000000000	       -0.0000000000	        0.2076431971	        0.0000770316	        1.3583900146	       -0.0000000000	        0.0000000000	        0.0000000000	
        1.1760000000	       30.5077509556	      227.9981157007	       20.1242188664	        0.1988394958	        0.0000558755	       -0.3004071327	      -18.4807336842	        3.2142681766	      -15.8142045080	        8.9030242272	      639.7466590262	      -92.9194093278	        0.2029003516	       -0.0000795827	        0.4543649445	      124.2916677912	      -16.6618749141	      -94.7156914457	       -0.0000000000	        0.0000000000	       -0.0000000000	        0.2076431971	        0.0000770316	        1.3583900146	       -0.0000000000	        0.0000000000	        0.0000000000	
        1.1770000000	       31.1000255422	      234.0599455050	       24.9991446638	        0.1988394958	        0.0000558755	       -0.3004071327	      -18.7608862215	        3.5032551515	      -16.2404882406	        8.4759301684	      636.5152943090	      -93.7483423341	        0.2029003516	       -0.0000795827	        0.4543649445	      123.8384830803	      -16.6563134668	      -94.1973634155	       -0.0000000000	        0.0000000000	        0.0000000000	        0.2076431971	        0.0000770316	        1.3583900146	        0.0000000000	        0.0000000000	       -0.0000000000	
        1.1780000000	       31.6722838256	      240.2370193237	       29.6509313145	        0.1988394958	        0.0000558755	       -0.3004071327	      -19.0419699333	        3.7792007057	      -16.6700348313	        8.0532077981	      633.1820646129	      -94.5647354459	        0.2029003516	       -0.0000795827	        0.4543649445	      123.3584647123	      -16.6495215734	      -93.6625931596	        0.0000000000	        0.0000000000	        0.0000000000	        0.2076431971	        0.0000770316	        1.3583900146	        0.0000000000	       -0.0000000000	       -0.0000000000	
        1.1790000000	       32.2356477780	      246.5905752389	       34.0186310217	        0.1988394958	        0.0000558755	       -0.3004071327	      -19.3308961440	        4.0391898778	      -17.1070052714	        7.6346269821	      629.7470054940	      -95.3699769730	        0.2029003516	       -0.0000795827	        0.4543649445	      122.8509404179	      -16.6416685765	      -93.1114552849	        0.0000000000	        0.0000000000	        0.0000000000	        0.2076431971	        0.0000770316	        1.3583900146	        0.0000000000	       -0.0000000000	       -0.0000000000	
        1.1800000000	       32.7966299440	      253.1569716082	       38.0547620622	        0.1988394958	        0.0000558755	       -0.3004071327	      -19.6319461052	        4.2807096963	      -17.5538536690	        7.2193339061	      626.2096183200	      -96.1658562065	        0.2029003516	       -0.0000795827	        0.4543649445	      122.3157285410	      -16.6330129512	      -92.5438759815	        0.0000000000	        0.0000000000	        0.0000000000	        0.2076431971	        0.0000770316	        1.3583900146	        0.0000000000	       -0.0000000000	       -0.0000000000	
        1.1810000000	       33.3573477828	      259.9498156826	       41.7280034676	        0.1988394958	        0.0000558755	       -0.3004071327	      -19.9468667225	        4.5018104896	      -18.0112159713	        6.8061710805	      622.5679958261	      -96.9540964880	        0.2029003516	       -0.0000795827	        0.4543649445	      121.7525836322	      -16.6237352865	      -91.9595872205	        0.0000000000	        0.0000000000	        0.0000000000	        0.2076431971	        0.0000770316	        1.3583900146	        0.0000000000	       -0.0000000000	       -0.0000000000	
        1.1820000000	       33.9166654320	      266.9634832146	       45.0240326817	        0.1988394958	        0.0000558755	       -0.3004071327	      -20.2751122125	        4.7013856918	      -18.4781006412	        6.3944933428	      618.8166230583	      -97.7362000953	        0.2029003516	       -0.0000795827	        0.4543649445	      121.1611531860	      -16.6137756398	      -91.3582167548	        0.0000000000	        0.0000000000	        0.0000000000	        0.2076431971	        0.0000770316	        1.3583900146	        0.0000000000	       -0.0000000000	       -0.0000000000	
        1.1830000000	       34.4713482625	      274.1737193524	       47.9425720167	        0.1988394958	        0.0000558755	       -0.3004071327	      -20.6143155568	        4.8789485995	      -18.9523003435	        5.9841060460	      614.9469690140	      -98.5125034092	        0.2029003516	       -0.0000795827	        0.4543649445	      120.5413357084	      -16.6027353807	      -90.7394762974	        0.0000000000	        0.0000000000	        0.0000000000	        0.2076431971	        0.0000770316	        1.3583900146	        0.0000000000	       -0.0000000000	       -0.0000000000	
        1.1840000000	       35.0169715534	      281.5388050952	       50.4957440650	        0.1988394958	        0.0000558755	       -0.3004071327	      -20.9611977452	        5.0347131086	      -19.4308000896	        5.5742972483	      610.9496179461	      -99.2808192497	        0.2029003516	       -0.0000795827	        0.4543649445	      119.8934685633	      -16.5898448461	      -90.1031273513	        0.0000000000	        0.0000000000	        0.0000000000	        0.2076431971	        0.0000770316	        1.3583900146	        0.0000000000	       -0.0000000000	       -0.0000000000	
        1.1850000000	       35.5484018599	      289.0061571734	       52.7070681823	        0.1988394958	        0.0000558755	       -0.3004071327	      -21.3122257242	        5.1697797710	      -19.9102351394	        5.1637928534	      606.8155517686	     -100.0356036377	        0.2029003516	       -0.0000795827	        0.4543649445	      119.2182974414	      -16.5740262504	      -89.4488028428	        0.0000000000	        0.0000000000	        0.0000000000	        0.2076431971	        0.0000770316	        1.3583900146	        0.0000000000	       -0.0000000000	       -0.0000000000	
        1.1860000000	       36.0602448152	      296.5212587584	       54.6083329191	        0.1988394958	        0.0000558755	       -0.3004071327	      -21.6635426647	        5.2857197689	      -20.3874806150	        4.7512175347	      602.5367613132	     -100.7685871234	        0.2029003516	       -0.0000795827	        0.4543649445	      118.5168516549	      -16.5540762833	      -88.7759935313	        0.0000000000	        0.0000000000	        0.0000000000	        0.2076431971	        0.0000770316	        1.3583900146	        0.0000000000	       -0.0000000000	       -0.0000000000	
        1.1870000000	       36.5474696046	      304.0333185428	       56.2377812411	        0.1988394958	        0.0000558755	       -0.3004071327	      -22.0108900394	        5.3843244251	      -20.8600320863	        4.3350717045	      598.1070038272	     -101.4711839753	        0.2029003516	       -0.0000795827	        0.4543649445	      117.7900942082	      -16.5288598308	      -88.0840730152	        0.0000000000	        0.0000000000	        0.0000000000	        0.2076431971	        0.0000770316	        1.3583900146	        0.0000000000	       -0.0000000000	       -0.0000000000	
